<?xml version='1.0' encoding='utf-8'?>
<svg xmlns:ns0="http://www.w3.org/2000/svg" xmlns="http://www.w3.org/2000/svg" viewBox="0 0 1024 1024" width="1024" height="1024"><defs><linearGradient id="gradD" x1="0%" y1="0%" x2="100%" y2="100%"><stop offset="0%" stop-color="#B35CFF" /><stop offset="55%" stop-color="#7B35FF" /><stop offset="100%" stop-color="#4D1FFF" /></linearGradient></defs><ns0:path fill="#FFFFFF" opacity="1.000000" stroke="none" d=" M129.62016243037974,715.3972602739725   C129.62016243037974,569.0252899810325 129.55016317299578,423.1927691464699 129.78599642194092,277.3607090579557   C129.80088006751055,268.1567111148577 130.8907239156118,258.5308553846154 133.72556529957805,249.8312858840885   C143.8406848270042,218.79002611591147 175.61975898734175,206.62249771970494 204.23546275105483,222.47156508324548   C210.60978713924047,226.00204193045312 216.5455403206751,230.64887408219178 221.89870123206748,235.6240940779768   C232.56711453164556,245.53928429926236 242.71726609282697,256.0128091717597 253.03571659071727,266.30151769020017   C307.94448796624465,321.0520947186512 362.81711473417715,375.8389099093783 417.74465944303796,430.57066648682826   C475.34592540084384,487.96667575974703 533.002306970464,545.3075605985247 590.6215058902953,602.6855899852476   C647.8595726582278,659.6840099473129 705.0893988185653,716.6907265753424 762.3029403544303,773.7136459262381   C772.7471646244726,784.1229587692308 783.48206771308,794.2775286828239 793.3896360506329,805.1783453403582   C805.2885020084387,818.2701529694415 811.6873019409283,833.8662405395153 808.4672993755274,851.7270157892517   C804.5073844388186,873.6923078271865 789.6991033248944,885.8271869167544 768.8345859240505,890.9612089188619   C761.9314346666666,892.6599051464699 754.6006067848101,893.243677943098 747.4637394092827,893.2541488556374   C729.4987471392404,893.2805581285563 711.2850082025316,894.4516591275026 693.619726042194,891.9729317091675   C658.8230481012657,887.0904241770284 627.7742620084388,872.8551106765016 602.515426835443,847.7907662634352   C545.0492154599156,790.7673872455216 487.7344739915612,733.5914775468914 430.4077005232067,676.4280824446786   C424.69125832911385,670.7279373487881 419.3148737890295,664.6873678229715 413.309203443038,658.3037410326659   C412.2842496540084,659.2529631359325 410.8639897383966,660.4860382550052 409.5351725907173,661.8107219894625   C363.15753532489447,708.0454431022129 316.7982263628692,754.2984063055849 270.41312297046414,800.5255537028451   C254.35865005907172,816.5251576986301 238.29390798312235,832.515081711275 222.13826754430377,848.4125392792413   C210.9517242869198,859.420442166491 198.03962329113924,867.3985772307692 181.9690958312236,868.4023972012644   C158.9685025485232,869.8391069673339 139.4062668691983,855.6353400042149 133.06942217721516,832.5804795953635   C130.95418815189873,824.8848131506849 129.86626484388185,816.6843384446786 129.77065154430377,808.697247426765   C129.40060516455696,777.7808876037934 129.62017863291138,746.857547532139 129.62016243037974,715.3972602739725  z" />
<ns0:path fill="url(#gradD)" opacity="1.000000" stroke="none" d=" M628.6582278481012,127.42725921180188   C690.0462814514767,127.42725921180188 750.8943165569619,127.41812953424656 811.7422868523206,127.42992657534246   C860.4823310042194,127.43937672497366 897.5178661265822,164.49794212012642 897.5182625485231,213.2383599409905   C897.519712135021,390.9142843076923 897.570081485232,568.5902928387777 897.3607598987342,746.2659377365648   C897.350738092827,754.7623160716543 896.170490599156,763.6166358187565 893.5971127088607,771.687565353003   C883.3416403713079,803.8531350389884 849.9378292658226,816.1631979768176 821.0093615527426,798.5947709504741   C814.1666003713079,794.4391469589041 807.7907432236286,789.1686642781875 802.1106940759493,783.5003290031611   C614.8909550717299,596.6672808598524 427.7538900253164,409.7513825922023 240.77381670886075,222.6790367629083   C234.1278179915612,216.02978502002105 227.9373847763713,208.3102277597471 223.6944224135021,199.99036803371968   C208.1453388691983,169.5008565142255 224.48668300421937,136.82680770495256 258.40010261603373,129.64901334457323   C265.0363592911392,128.24444358271865 271.9465316455696,127.52510893993676 278.7314746329114,127.51775750474182   C395.1935978396624,127.39162962276079 511.655887392405,127.42714375553213 628.6582278481012,127.42725921180188  z" />
</svg>